<?xml version="1.0" encoding="UTF-8" standalone="no"?>
<svg xmlns="http://www.w3.org/2000/svg" version="1.0"
   width="16" height="16">
  <circle cx="8" cy="8" r="7.5" style="fill:#c0c0c0;stroke:#888888" />
  <path
     d="m 10.645264,10.55127 0,1.401855 -5.2905277,0 C 5.4120277,11.423178 5.5839025,10.920981 5.8703613,10.446533 6.1568186,9.9720886 6.7225732,9.342776 7.567627,8.5585938 8.2479623,7.9248087 8.6651169,7.4951216 8.8190918,7.2695312 9.0267701,6.9580128 9.1306112,6.6500704 9.1306152,6.3457031 9.1306112,6.0091205 9.0401979,5.7504131 8.859375,5.5695801 8.6785446,5.3887598 8.428789,5.2983465 8.1101074,5.2983398 7.7950005,5.2983465 7.5443497,5.3932357 7.3581543,5.5830078 7.1719543,5.7727926 7.0645325,6.0878965 7.0358887,6.5283203 L 5.5319824,6.3779297 C 5.6215001,5.5472069 5.9025871,4.9510161 6.3752441,4.5893555 6.8478986,4.2277095 7.4387183,4.0468829 8.1477051,4.046875 c 0.7770144,7.9e-6 1.3875281,0.2094804 1.8315429,0.628418 0.444005,0.4189521 0.66601,0.9399477 0.666016,1.5629882 -6e-6,0.3544976 -0.06356,0.691981 -0.190674,1.0124512 C 10.327469,7.5712121 10.126053,7.9069051 9.8503418,8.2578125 9.66772,8.4905634 9.3382933,8.8253612 8.8620605,9.262207 8.3858203,9.6990582 8.0841441,9.989097 7.9570312,10.132324 7.8299126,10.275555 7.7269668,10.415203 7.6481934,10.55127 z" />
</svg>
